# xmcd
#
# Track frame offsets:
#	150
#	15602
#	33867
#	47792
#	63672
#	78797
#	100250
#	118935
#	136740
#	154640
#	171032
#	203020
#	225365
#	243560
#	267277
#	291512
#	309677
#	330245
#
# Disc length: 4596 seconds
#
# Revision: 2
# Processed by: cddbd v1.4PL0 Copyright (c) Steve Scherf et al.
# Submitted via: EasyCDDAExtractor 5.0.7
#
DISCID=ee11f212
DTITLE=Lenny Williams - Cause I Love You: The Best of Lenny Williams
DYEAR=1995
DGENRE=R&B
TTITLE0=People Make The World Go Round
TTITLE1=We're Gonna See It Through
TTITLE2=Since I Met You
TTITLE3=Choosing You
TTITLE4=Shoo Soo Fu Fu Ooh!
TTITLE5=Look Up With Your Mind
TTITLE6=I've Been Away From Love Too Long
TTITLE7=Problem Solver
TTITLE8=You Got Me Running
TTITLE9=Midnight Girl
TTITLE10=Cause I Love You
TTITLE11=Doing The Loop De Loop
TTITLE12=Love Hurt Me, Love Healed Me
TTITLE13=Let's Talk It Over
TTITLE14=Suspicions
TTITLE15=Ooh Child
TTITLE16=Messing With My Mind
TTITLE17=Freefall (Into Love)
EXTD=
EXTT0=
EXTT1=
EXTT2=
EXTT3=
EXTT4=
EXTT5=
EXTT6=
EXTT7=
EXTT8=
EXTT9=
EXTT10=
EXTT11=
EXTT12=
EXTT13=
EXTT14=
EXTT15=
EXTT16=
EXTT17=
PLAYORDER=
